<svg xmlns="http://www.w3.org/2000/svg" width="40.933" height="40.933" viewBox="0 0 40.933 40.933"><defs><style>.a{fill:#fff;}</style></defs><g transform="translate(40.933) rotate(90)"><path class="a" d="M20.467,40.933A20.467,20.467,0,1,1,40.933,20.467,20.489,20.489,0,0,1,20.467,40.933Zm0-37.763a17.3,17.3,0,1,0,17.3,17.3A17.316,17.316,0,0,0,20.467,3.171Z"/><g transform="translate(11.049 15.582)"><g transform="translate(0)"><path class="a" d="M18.47,2.7l-7.927,7.927a1.585,1.585,0,0,1-2.235,0L.382,2.7A1.585,1.585,0,0,1,2.617.461l6.8,6.8,6.817-6.8A1.581,1.581,0,0,1,18.47,2.7Z"/></g></g></g></svg>