<svg xmlns="http://www.w3.org/2000/svg" width="80.856" height="60" viewBox="0 0 80.856 60"><defs><style>.a{fill:#c32032;}</style></defs><g transform="translate(0 -66.033)"><g transform="translate(0 66.033)"><path class="a" d="M79.681,68.134c-13.838-3.661-26.908-1.793-39.547.013-12.275,1.754-24.967,3.567-38.146.036A1.579,1.579,0,0,0,0,69.709v52.662A1.579,1.579,0,0,0,1.171,123.9a65.709,65.709,0,0,0,17.156,2.137,119.513,119.513,0,0,0,15.191-1.124,1.579,1.579,0,0,0-.4-3.133,116.322,116.322,0,0,1-14.8,1.1v-49.5a156.866,156.866,0,0,0,22.262-2.093c7.444-1.064,14.651-2.093,21.956-2.1v49.52a120.564,120.564,0,0,0-15.34,1.142,1.579,1.579,0,0,0,.4,3.133c9.772-1.254,20.324-2.014,31.274.882a1.579,1.579,0,0,0,1.983-1.527V69.661a1.579,1.579,0,0,0-1.175-1.527ZM15.161,122.8a61.148,61.148,0,0,1-12-1.659V71.73a64.546,64.546,0,0,0,12,1.576Zm62.537-2.5a65.364,65.364,0,0,0-12-1.555V69.238a61.475,61.475,0,0,1,12,1.652Z" transform="translate(0 -66.033)"/><path class="a" d="M163.46,169.142a1.579,1.579,0,0,0,1.807-1.753l-.443-3.62,8.284-4.743a1.579,1.579,0,0,0-.189-2.833l-1.811-.737,2.116-4.687a1.579,1.579,0,0,0-1.829-2.18l-4.983,1.27L166,147.947a1.579,1.579,0,0,0-2.85-.555l-1.118,1.646,1.148-6.376a1.579,1.579,0,0,0-2.292-1.676l-2.016,1.065-2.5-5.187a1.579,1.579,0,0,0-2.846,0l-2.5,5.187-2.017-1.065a1.579,1.579,0,0,0-2.292,1.676l1.148,6.376-1.118-1.646a1.579,1.579,0,0,0-2.85.555l-.412,1.911-4.983-1.27a1.579,1.579,0,0,0-1.829,2.18l2.116,4.687-1.811.737a1.579,1.579,0,0,0-.189,2.833l8.284,4.743-.443,3.62a1.58,1.58,0,0,0,1.807,1.753l6.929-1.063v4.213a1.579,1.579,0,0,0,3.158,0v-4.213Zm-15.9-7.593-6.381-3.653.326-.133a1.579,1.579,0,0,0,.844-2.112l-1.44-3.191,3.392.864a1.579,1.579,0,0,0,1.911-1.107l3.225,4.749A1.579,1.579,0,0,0,152.3,155.8l-1.892-10.505.6.317a1.579,1.579,0,0,0,2.161-.711l1.785-3.708,1.785,3.708a1.58,1.58,0,0,0,2.161.711l.6-.317L157.6,155.8a1.579,1.579,0,0,0,2.861,1.167l3.225-4.748a1.579,1.579,0,0,0,1.911,1.107l3.392-.864-1.44,3.191a1.579,1.579,0,0,0,.844,2.112l.326.133-6.381,3.653a1.579,1.579,0,0,0-.783,1.562l.317,2.593-6.688-1.026a1.58,1.58,0,0,0-.479,0l-6.688,1.026.317-2.593A1.579,1.579,0,0,0,147.559,161.549Z" transform="translate(-114.523 -124.925)"/><path class="a" d="M247.138,412.788h0a1.579,1.579,0,1,0,1.58,1.579A1.579,1.579,0,0,0,247.137,412.788Z" transform="translate(-206.779 -358.028)"/></g></g></svg>